<svg xmlns="http://www.w3.org/2000/svg" viewBox="0 0 64 64"><defs><radialGradient id="ib" cx="0.32" cy="0.26" r="0.85"><stop offset="0" stop-color="#fff6a8"/><stop offset="0.32" stop-color="#ffd400"/><stop offset="0.78" stop-color="#f7941d"/><stop offset="1" stop-color="#d9700a"/></radialGradient><linearGradient id="ih" x1="0" y1="0" x2="0" y2="1"><stop offset="0" stop-color="#fff" stop-opacity="0.8"/><stop offset="1" stop-color="#fff" stop-opacity="0"/></linearGradient></defs><g fill="#ffb81c"><path d="M32 1.5l4 8.5h-8z" transform="rotate(0 32 32)"/><path d="M32 1.5l4 8.5h-8z" transform="rotate(30 32 32)"/><path d="M32 1.5l4 8.5h-8z" transform="rotate(60 32 32)"/><path d="M32 1.5l4 8.5h-8z" transform="rotate(90 32 32)"/><path d="M32 1.5l4 8.5h-8z" transform="rotate(120 32 32)"/><path d="M32 1.5l4 8.5h-8z" transform="rotate(150 32 32)"/><path d="M32 1.5l4 8.5h-8z" transform="rotate(180 32 32)"/><path d="M32 1.5l4 8.5h-8z" transform="rotate(210 32 32)"/><path d="M32 1.5l4 8.5h-8z" transform="rotate(240 32 32)"/><path d="M32 1.5l4 8.5h-8z" transform="rotate(270 32 32)"/><path d="M32 1.5l4 8.5h-8z" transform="rotate(300 32 32)"/><path d="M32 1.5l4 8.5h-8z" transform="rotate(330 32 32)"/></g><circle cx="32" cy="32" r="20" fill="url(#ib)"/><ellipse cx="25" cy="19.5" rx="8" ry="4.6" transform="rotate(-24 25 19.5)" fill="url(#ih)"/><path d="M32 20l2.9 6.3 6.9.8-5.1 4.7 1.3 6.8L32 35.2l-6 3.4 1.3-6.8-5.1-4.7 6.9-.8z" fill="#fff8d0" stroke="#c76a05" stroke-opacity="0.35" stroke-width="0.8" stroke-linejoin="round"/></svg>
